<svg id="Layer_1" data-name="Layer 1" xmlns="http://www.w3.org/2000/svg" viewBox="0 0 66.57 81.08"><defs><style>.cls-1{fill:#90e4ff;}</style></defs><title>Logo-for-site-noShadow</title><rect class="cls-1" x="29.1" y="7.67" width="8.85" height="20.74" rx="2.78" ry="2.78"/><path class="cls-1" d="M67.76,111.37s-3.8.76-7.93-4.56S41.37,76.07,40.71,73.57,36.8,62.76,43,53.53c0,0-4.13-3.45-3.26-12.68S50.06,30.32,50.06,30.32s-10.7,14,6.9,14c4.07,0,4.26,6.77,3,8.72s-5,4.86-6.14,5.95-11,6.3-5.46,17.7,14.84,23.57,14.84,23.57,2.38,6.08,8.05,6.08h2.7c5.67,0,8.05-6.08,8.05-6.08s9.3-12,14.84-23.45-4.33-16.68-5.46-17.77-4.83-4-6.14-6-1.11-8.74,3-8.74c17.6,0,6.9-14,6.9-14s9.45,1.29,10.32,10.52-3.26,12.68-3.26,12.68c6.19,9.23,2.93,17.55,2.28,20s-15,27.9-19.12,33.22-7.93,4.56-7.93,4.56Z" transform="translate(-39.28 -30.32)"/></svg>