<?xml version="1.0" encoding="utf-8"?>
<!-- Generator: Adobe Illustrator 21.1.0, SVG Export Plug-In . SVG Version: 6.00 Build 0)  -->
<svg version="1.1" id="Layer_1" xmlns="http://www.w3.org/2000/svg" xmlns:xlink="http://www.w3.org/1999/xlink" x="0px" y="0px"
	 viewBox="0 0 1216.2 124" style="enable-background:new 0 0 1216.2 124;" xml:space="preserve">
<style type="text/css">
	.st0{fill:#8EE6FF;}
	.st1{fill:none;stroke:#404B81;stroke-miterlimit:10;}
	.st2{fill:none;stroke:#1DF4FF;stroke-miterlimit:10;}
	.st3{fill:#90E4FF;}
	.st4{fill:#90E4FF;stroke:#1DF4FF;stroke-miterlimit:10;}
</style>
<title>Waihack_LogoConcepts</title>
<g id="Layer_1_1_">
	<polygon class="st0" points="708.5,104.3 716.5,104.3 715.7,97.8 724.6,75.2 725.4,56.7 711.7,56.7 711.7,47.8 733.5,47.8 
		751.2,44.6 761.7,30 758.9,11.9 771,30.4 758.9,52.2 734.3,57.1 733.1,76.4 723.4,99 724.2,104.7 719.3,111.1 708.5,111.1 
		708,111.1 697.2,111.1 692.3,104.7 693.1,99 683.4,76.4 682.6,57.1 657.6,52.2 645.5,30.4 657.6,11.9 654.8,30 665.3,44.6 
		683,47.8 704.8,47.8 704.8,56.7 691.1,56.7 691.9,75.2 700.8,97.8 700,104.3 708,104.3 	"/>
	<polygon class="st0" points="917.5,117.9 929.7,117.9 935.1,110.7 934.2,104.4 949.5,79.2 945.9,57.5 973.8,52.1 987.3,27.8 
		965.7,7.1 977,27.4 966.6,44 924.7,52.1 924.7,61.1 936,59.3 939.6,77.8 925.6,103 926.5,110.2 917.5,110.2 918,110.2 909,110.2 
		909.9,103 895.9,77.8 899.5,59.3 911.2,61.1 911.2,52.1 868.9,44 858.5,27.4 869.8,7.1 848.2,27.8 861.7,52.1 889.6,57.5 886,79.2 
		901.3,104.4 900.4,110.7 905.8,117.9 918,117.9 	"/>
	<path class="st1" d="M704.5,140"/>
</g>
<g id="Layer_2">
	<path class="st2" d="M-24.5,56"/>
	<polygon class="st3" points="47,102 61,64 51,53 67,43 57.5,28 77.5,43 67.5,52 71.5,64 49.5,107 28,107 6,64 10,52 0,43 20,28 
		10,43 26,53 16,64 30,102 	"/>
	<path class="st2" d="M433.5,29"/>
	<path class="st2" d="M475,63"/>
	<polygon class="st3" points="258.5,106 269.5,106 271.5,103 271.5,100 266.5,94 269,89 279,60 269,49 285,39 275,24 295,39 285,48 
		289,60 271,94 276.5,100 276.5,105 269.5,111 258.5,111 257.5,111 246.5,111 239.5,105 239.5,100 245,94 227,60 231,48 221,39 
		241,24 231,39 247,49 237,60 247,89 249.5,94 244.5,100 244.5,103 246.5,106 257.5,106 	"/>
	<path class="st3" d="M524.5,29"/>
	<path class="st2" d="M483,63"/>
	<polygon class="st3" points="478.5,106 467.5,106 465.5,103 465.5,100 470.5,94 468,89 458,60 468,49 450.5,39 472.5,24 438.5,39 
		452,48 448,60 466,94 460.5,100 460.5,105 467.5,111 478.5,111 479.5,111 490.5,111 497.5,105 497.5,100 492,94 510,60 506,48 
		519.5,39 485.5,24 507.5,39 490,49 500,60 490,89 487.5,94 492.5,100 492.5,103 490.5,106 480.5,106 	"/>
	<path class="st4" d="M175.5,77"/>
	<path class="st0" d="M1189.8,17.6c-0.2-0.2-0.5-0.3-0.7-0.1c-0.2,0.1-0.3,0.3-0.2,0.6c2.3,9.9,0.2,20.2-9,25.9
		c-5.2,3.2-11.5,4.3-17.6,4.1c-4.6-0.1-9.3,0.1-13.9,0.1c-1.1,0-2,0.9-2,2.1c0,0,0,0,0,0c0,2.4,0.1,4.8,0.1,7.1
		c0,0.1,0.1,0.3,0.2,0.3c0,0,0.1,0,0.1,0c2.8-0.1,5.7,0,8.5,0.4c0.8,0.1,1.6,0.4,2.3,0.9c0.9,0.8,1.4,2,1.4,3.2c0.1,2.7,0,5.3-0.5,8
		c-0.6,4.5-1.8,8.8-3.5,13c-1.7,3.8-3.8,7.4-6.5,10.7c-0.4,0.5-0.3,1.1,0.2,1.5c1.3,1.1,3.2,2.5,3.1,3.8c-0.1,1.2-7.6,0.8-7.6,0.8
		h-0.5c-0.2,0.1-0.4,0.1-0.7,0h-0.5c0,0-7.5,0.4-7.6-0.8c-0.1-1.3,1.8-2.8,3.1-3.8c0.5-0.4,0.5-1,0.2-1.5c-2.6-3.3-4.8-6.9-6.5-10.7
		c-1.7-4.2-2.9-8.6-3.5-13c-0.4-2.6-0.6-5.3-0.5-8c0-1.2,0.5-2.4,1.4-3.2c0.7-0.5,1.5-0.8,2.3-0.9c2.8-0.4,5.7-0.5,8.5-0.4
		c0.1,0,0.3,0,0.3-0.2c0,0,0-0.1,0-0.1c0-2.4,0.1-4.8,0.1-7.1c0-1.1-0.9-2.1-2-2.1c0,0,0,0,0,0c-4.6-0.1-9.3-0.3-13.9-0.1
		c-6.1,0.2-12.4-0.9-17.6-4.1c-9.2-5.6-11.3-16-9-25.9c0.1-0.3-0.1-0.6-0.4-0.6c-0.2,0-0.4,0-0.6,0.2c-5.2,8.1-18.2,33.7,22.2,39.8
		c0.6,0.1,1,0.7,0.9,1.3c0,0,0,0,0,0c-0.6,3.7-1.7,16.7,9.6,35.5c0.2,0.3,0.2,0.7,0.1,1c-0.8,1.9-3,8.5,3.6,10.5
		c0.1,0,0.2,0.1,0.3,0.1h9.4c0.2-0.1,0.4-0.1,0.6,0h9.4c0.1,0,0.2,0,0.3-0.1c6.6-2,4.4-8.7,3.6-10.5c-0.1-0.3-0.1-0.7,0.1-1
		c11.2-18.8,10.2-31.8,9.6-35.5c-0.1-0.6,0.3-1.2,0.9-1.3c0,0,0,0,0,0C1208,51.3,1195,25.7,1189.8,17.6z"/>
</g>
</svg>
